<svg viewBox="0 0 753.47 256.16" xmlns="http://www.w3.org/2000/svg" role="img" aria-label="Giftech Global">
  <path fill="#041e3c" d="M142.55 91.96v14.75c0 2.55-1.38 3.93-3.93 3.93h-6.09c-7.67 33.23-34.11 50.33-63.31 50.33C30.08 160.98 0 135.42 0 92.36S31.46 23.54 68.82 23.54c29.3 0 54.07 16.13 61.54 42.67.79 2.75-.79 4.33-3.54 4.33h-23.2c-2.16 0-3.54-.98-4.52-3.15-4.72-11.01-16.71-17.11-30.47-17.11-21.63 0-39.13 15.14-39.13 42.47s16.12 41.49 40.31 41.49c17.2 0 29.89-10.61 32.74-23.59h-1.87c-22.61 0-35.2-8.66-39.13-22.62h77.07c2.56 0 3.93 1.38 3.93 3.93Zm25.59-36.37c-10.62 0-21.63-5.31-21.63-15.92 0-10.42 11.01-15.93 21.63-15.93 10.81 0 21.63 5.5 21.63 15.93 0 10.62-10.81 15.92-21.63 15.92Zm-12.19 103.81c-2.56 0-3.93-1.37-3.93-3.93v-47.39c0-20.25 10.42-33.42 29.49-37.36v84.74c0 2.56-1.38 3.93-3.93 3.93h-21.63Zm102.26-147.46c2.56 0 3.93 1.38 3.93 3.93v19.07c0 2.56-1.37 3.93-3.93 3.93-10.03 0-16.32 3.93-16.32 21.43v12.38h13.76c2.56 0 3.93 1.38 3.93 3.93v14.94c0 2.56-1.37 3.93-3.93 3.93h-13.76v59.97c0 2.56-1.38 3.93-3.93 3.93h-21.63c-2.56 0-3.93-1.37-3.93-3.93v-59.97h-12.58c-2.56 0-3.93-1.37-3.93-3.93v-14.94c0-2.55 1.37-3.93 3.93-3.93h12.58v-12.38c0-38.54 26.54-48.37 41.68-48.37h4.13Zm65.32 60.75c2.4 0 3.69 1.38 3.69 3.93v14.94c0 2.56-1.29 3.93-3.69 3.93h-11.98v59.97c0 2.56-1.29 3.93-3.69 3.93h-20.27c-2.4 0-3.69-1.37-3.69-3.93v-59.97h-11.79c-2.4 0-3.69-1.37-3.69-3.93v-14.94c0-2.55 1.29-3.93 3.69-3.93h11.79c0-20.25 9.77-33.42 27.64-37.36v37.36h11.98Zm111.85 41.49v3.54c0 2.56-1.37 3.93-3.93 3.93h-63.31c.79 11.99 7.67 19.86 18.68 19.86 8.65 0 14.35-3.93 16.71-9.24.98-2.16 2.16-3.34 4.32-3.34h21.83c2.75 0 4.32 1.77 3.34 4.52-6.88 19.66-23.99 29.1-45.61 29.1-29.89 0-50.53-17.7-50.53-46.41s21.43-46.6 50.53-46.6c26.35 0 47.97 15.93 47.97 44.63Zm-31.26-8.45c-.59-9.44-7.28-16.12-17.7-16.12s-16.22 6.69-17.89 16.12h35.59Zm39.36 10.22c0-25.76 17.3-46.4 46.2-46.4 26.35 0 43.65 14.55 47 33.82.39 2.55-1.18 4.13-3.74 4.13h-21.63c-2.36 0-3.54-1.18-4.13-3.54-1.77-7.47-6.49-11.6-15.34-11.6-13.37 0-18.88 12.19-18.88 23.59 0 12.78 5.51 23.79 18.88 23.79 8.85 0 13.57-4.13 15.34-11.6.59-2.36 1.77-3.54 4.13-3.54h21.63c2.55 0 4.13 1.18 3.74 3.15-2.75 19.66-20.25 34.8-47 34.8-28.9 0-46.2-20.65-46.2-46.6Zm171.83-43.6c-2.67-.04-6.06-.15-9.79.48-2.75.39-5.73 1.18-8.82 2.67-3.41 1.69-6.08 4.55-8.35 7.45l-.9-71.29c-15.79 0-28.59 12.8-28.59 28.59v114.97c0 2.16 1.76 3.92 3.92 3.92h21.61c2.18 0 3.96-1.78 3.96-3.96v-39.29c0-11.8 7.25-21.65 16.51-21.65 5.55 0 9.22 2 11.18 5.8V72.4c-.31-.04-.52-.05-.72-.05Z"></path>
  <path fill="#d91f2b" d="M723.63 117.03v38.35c0 2.38-2.08 4.3-4.59 4.3h-50.63c-2.55 0-4.59-1.92-4.59-4.3v-38.35c0-2.38 2.04-4.3 4.59-4.3h50.63c2.51 0 4.59 1.92 4.59 4.3Zm0-40.04v19.92c0 2.51-1.76 4.59-3.96 4.59h-51.92c-2.16 0-3.92-2.08-3.92-4.59V76.99c0-2.55 1.76-4.59 3.92-4.59h51.92c2.2 0 3.96 2.04 3.96 4.59Zm-5.57-40.65c-2.67-4.63-8.23-7.41-14.86-7.41-15.14 0-25.84 13.8-31.1 22.51-5.29-8.71-16-22.43-31.1-22.43-9.53 0-16.47 5.76-16.47 13.57 0 13.88 15.61 22.9 47.06 22.9s48.12-11.61 48.12-22.78c0-2.2-.51-4.39-1.65-6.35Zm-77.21 13.8c-5.25-2.74-7.14-5.76-7.14-7.72 0-2.51 3.06-4.31 7.29-4.31 10.23 0 18.35 10.2 22.74 17.25-11.8-.75-18.86-3.14-22.9-5.22Zm68.94-5.41c-2.63 4.63-11.72 9.49-29.29 10.63 4.43-7.06 12.59-17.25 22.7-17.25 3.88 0 6.12 1.45 6.9 2.82.63 1.1.55 2.35-.31 3.8Zm-82.16 110.9c0 1.96 1.5 3.56 3.32 3.56h18.34c1.83 0 3.32-1.6 3.32-3.56v-41.05c0-.57 0-1.21-.03-1.85h-24.99Zm23.89-59.7c-.59-4.74-2.2-9.37-4.98-13.25-3.45-4.67-9.25-9.49-18.94-10.2v26.36c0 1.47 1.19 2.66 2.66 2.66h21.85c-.16-2.04-.39-4-.59-5.57Z"></path>
  <text x="190" y="230" fill="#041e3c" font-family="Arial, sans-serif" font-size="50" letter-spacing="26">GLOBAL</text>
</svg>