<svg viewBox="0 0 293.74 63.94" xmlns:xlink="http://www.w3.org/1999/xlink" xmlns="http://www.w3.org/2000/svg" id="Layer_1"><defs><style>.cls-1{fill:url(#linear-gradient-2);}.cls-2{fill:url(#linear-gradient-5);}.cls-3{fill:url(#linear-gradient-3);}.cls-4{fill:url(#linear-gradient);}.cls-5{fill:url(#linear-gradient-4);}</style><linearGradient gradientUnits="userSpaceOnUse" y2="-34.4" x2="122.97" y1="89.76" x1="247.12" id="linear-gradient"><stop stop-color="#aa670f" offset=".01"></stop><stop stop-color="#b97a1a" offset=".03"></stop><stop stop-color="#e1ac36" offset=".08"></stop><stop stop-color="#eebd40" offset=".09"></stop><stop stop-color="#ecba3d" offset=".1"></stop><stop stop-color="#d69820" offset=".22"></stop><stop stop-color="#d99d23" offset=".23"></stop><stop stop-color="#e3ac2e" offset=".25"></stop><stop stop-color="#f3c540" offset=".27"></stop><stop stop-color="#f5c842" offset=".27"></stop><stop stop-color="#e9b634" offset=".3"></stop><stop stop-color="#dca327" offset=".34"></stop><stop stop-color="#d5971e" offset=".38"></stop><stop stop-color="#d3941c" offset=".42"></stop><stop stop-color="#d4961f" offset=".44"></stop><stop stop-color="#d99f2b" offset=".46"></stop><stop stop-color="#e1ae3f" offset=".48"></stop><stop stop-color="#ecc25b" offset=".5"></stop><stop stop-color="#f8d878" offset=".52"></stop><stop stop-color="#f1cd6b" offset=".53"></stop><stop stop-color="#e2b44f" offset=".55"></stop><stop stop-color="#d6a039" offset=".57"></stop><stop stop-color="#ce922a" offset=".59"></stop><stop stop-color="#c98a20" offset=".62"></stop><stop stop-color="#c8881e" offset=".65"></stop><stop stop-color="#ca8b1f" offset=".69"></stop><stop stop-color="#d19525" offset=".72"></stop><stop stop-color="#dda62f" offset=".74"></stop><stop stop-color="#eebe3c" offset=".77"></stop><stop stop-color="#f5c842" offset=".78"></stop><stop stop-color="#ebb937" offset=".79"></stop><stop stop-color="#dea529" offset=".81"></stop><stop stop-color="#d5971e" offset=".84"></stop><stop stop-color="#d08f18" offset=".87"></stop><stop stop-color="#cf8d17" offset=".93"></stop><stop stop-color="#cb8a16" offset=".95"></stop><stop stop-color="#bf8216" offset=".96"></stop><stop stop-color="#ac7415" offset=".98"></stop><stop stop-color="#926114" offset="1"></stop><stop stop-color="#8a5c14" offset="1"></stop></linearGradient><linearGradient gradientUnits="userSpaceOnUse" y2="17.86" x2="-.26" y1="57.44" x1="39.32" id="linear-gradient-2"><stop stop-color="#b1740e" offset=".05"></stop><stop stop-color="#e1a930" offset=".19"></stop><stop stop-color="#e8b439" offset=".26"></stop><stop stop-color="#efbe41" offset=".3"></stop><stop stop-color="#efc149" offset=".32"></stop><stop stop-color="#f2cb60" offset=".35"></stop><stop stop-color="#f7dc85" offset=".38"></stop><stop stop-color="#fdf2b8" offset=".42"></stop><stop stop-color="#fffac9" offset=".43"></stop><stop stop-color="#fdf2b9" offset=".44"></stop><stop stop-color="#f7df8e" offset=".47"></stop><stop stop-color="#f3d06c" offset=".5"></stop><stop stop-color="#f0c554" offset=".54"></stop><stop stop-color="#eebf46" offset=".56"></stop><stop stop-color="#eebd41" offset=".59"></stop><stop stop-color="#e5b33a" offset=".6"></stop><stop stop-color="#ce9726" offset=".66"></stop><stop stop-color="#be8319" offset=".71"></stop><stop stop-color="#b47710" offset=".77"></stop><stop stop-color="#b1740e" offset=".82"></stop></linearGradient><linearGradient gradientUnits="userSpaceOnUse" y2="2.53" x2="24.12" y1="47.5" x1="69.09" id="linear-gradient-3"><stop stop-color="#b1740e" offset=".08"></stop><stop stop-color="#e1a930" offset=".19"></stop><stop stop-color="#e8b439" offset=".26"></stop><stop stop-color="#efbe41" offset=".3"></stop><stop stop-color="#efc149" offset=".32"></stop><stop stop-color="#f2cb60" offset=".35"></stop><stop stop-color="#f7dc85" offset=".38"></stop><stop stop-color="#fdf2b8" offset=".42"></stop><stop stop-color="#fffac9" offset=".43"></stop><stop stop-color="#fdf2b9" offset=".44"></stop><stop stop-color="#f7df8e" offset=".47"></stop><stop stop-color="#f3d06c" offset=".49"></stop><stop stop-color="#f0c554" offset=".52"></stop><stop stop-color="#eebf46" offset=".54"></stop><stop stop-color="#eebd41" offset=".56"></stop><stop stop-color="#d9a430" offset=".6"></stop><stop stop-color="#c3891d" offset=".64"></stop><stop stop-color="#b57911" offset=".68"></stop><stop stop-color="#b1740e" offset=".71"></stop><stop stop-color="#7e530d" offset=".88"></stop></linearGradient><linearGradient gradientUnits="userSpaceOnUse" gradientTransform="translate(235.62 1093.9)" y2="-1039.6" x2="-202.91" y1="-1039.72" x1="-190.58" id="linear-gradient-4"><stop stop-color="#aa670f" offset=".01"></stop><stop stop-color="#b97a1a" offset=".03"></stop><stop stop-color="#e1ac36" offset=".06"></stop><stop stop-color="#eebd40" offset=".07"></stop><stop stop-color="#ecba3d" offset=".08"></stop><stop stop-color="#d69820" offset=".17"></stop><stop stop-color="#dba026" offset=".2"></stop><stop stop-color="#ebb937" offset=".25"></stop><stop stop-color="#f5c842" offset=".27"></stop><stop stop-color="#ecba38" offset=".3"></stop><stop stop-color="#d99e23" offset=".38"></stop><stop stop-color="#d3941c" offset=".42"></stop><stop stop-color="#dea837" offset=".44"></stop><stop stop-color="#ecc25a" offset=".47"></stop><stop stop-color="#f4d270" offset=".5"></stop><stop stop-color="#f8d878" offset=".52"></stop><stop stop-color="#ecc462" offset=".54"></stop><stop stop-color="#d8a33d" offset=".59"></stop><stop stop-color="#cc8f26" offset=".63"></stop><stop stop-color="#c8881e" offset=".65"></stop><stop stop-color="#ca8b1f" offset=".69"></stop><stop stop-color="#d19525" offset=".72"></stop><stop stop-color="#dda62f" offset=".74"></stop><stop stop-color="#eebe3c" offset=".77"></stop><stop stop-color="#f5c842" offset=".78"></stop><stop stop-color="#e6b232" offset=".79"></stop><stop stop-color="#dca125" offset=".81"></stop><stop stop-color="#d4951d" offset=".83"></stop><stop stop-color="#d08e18" offset=".85"></stop><stop stop-color="#cf8d17" offset=".93"></stop><stop stop-color="#cb8a16" offset=".95"></stop><stop stop-color="#bf8216" offset=".96"></stop><stop stop-color="#ac7415" offset=".98"></stop><stop stop-color="#926114" offset="1"></stop><stop stop-color="#8a5c14" offset="1"></stop></linearGradient><linearGradient xlink:href="#linear-gradient-4" gradientTransform="translate(236.98 1097.17)" y2="-1042.88" x2="-199.63" y1="-1042.99" x1="-187.3" id="linear-gradient-5"></linearGradient></defs><g><g><path d="m89,47.08c.51-.12.92-.37,1.25-.75.32-.38.49-.89.49-1.52v-24.93c0-.6-.16-1.1-.49-1.49-.32-.4-.72-.66-1.18-.78h7.97c-.51.12-.91.38-1.21.78-.3.4-.45.9-.45,1.49v8.25c1.62.16,3.3.49,5.06.99,1.76.5,3.41,1.16,4.96,1.97,1.55.82,2.93,1.79,4.16,2.93,1.22,1.14,2.14,2.4,2.74,3.8v-17.94c0-.6-.15-1.1-.45-1.49-.3-.4-.71-.66-1.21-.78h7.97c-.51.12-.91.38-1.21.78-.3.4-.45.9-.45,1.49v24.93c0,.64.16,1.15.49,1.52.32.38.74.63,1.25.75h-8.11c1.15-.28,1.73-1.04,1.73-2.27v-4.13c-.05-1.67-.61-3.21-1.7-4.6-1.09-1.39-2.45-2.61-4.09-3.65-1.64-1.04-3.44-1.87-5.41-2.51-1.96-.64-3.87-1.04-5.72-1.2v16.08c0,.64.16,1.15.49,1.52.32.38.74.63,1.25.75h-8.11Z"></path><path d="m127.48,43.61c-.28.56-.36,1.05-.24,1.46.11.42.35.77.69,1.05.35.28.76.5,1.25.66.48.16.96.26,1.42.3h-9.29c1.02-.24,2.05-.65,3.09-1.23,1.04-.58,1.79-1.33,2.25-2.24l10.95-22.72-.49-1.02c-.32-.48-.72-.94-1.18-1.38-.46-.44-1.04-.74-1.73-.9h6.79l12.55,25.95c.28.56.67,1.23,1.18,2,.51.78,1.22,1.29,2.15,1.52h-9.64c.23-.08.47-.21.73-.39.25-.18.47-.42.66-.72.18-.3.28-.64.28-1.02s-.12-.83-.35-1.35l-1.04-2.09c-.79-1.35-1.77-2.58-2.95-3.68-1.18-1.1-2.43-2.04-3.74-2.84-1.32-.8-2.67-1.42-4.06-1.88-1.39-.46-2.7-.71-3.95-.75l-5.34,11.24Zm10.47-21.94l-4.85,10.16c1.06.04,2.16.23,3.29.57,1.13.34,2.28.8,3.43,1.38,1.15.58,2.28,1.27,3.36,2.06,1.09.8,2.07,1.69,2.95,2.69l-8.18-16.86Z"></path><path d="m159.65,47.08c.51-.12.92-.37,1.25-.75.32-.38.49-.89.49-1.52v-24.93c0-.6-.16-1.1-.49-1.49-.32-.4-.72-.66-1.18-.78h11.16c2.36,0,4.55.39,6.59,1.17,2.03.78,3.81,1.83,5.34,3.17,1.53,1.34,2.73,2.89,3.61,4.66.88,1.77,1.32,3.68,1.32,5.71s-.44,3.94-1.32,5.71c-.88,1.77-2.08,3.33-3.61,4.66-1.53,1.34-3.3,2.39-5.34,3.17s-4.23,1.19-6.59,1.23h-11.23Zm6.38-2.27c0,.64.16,1.08.49,1.31.32.24.74.36,1.25.36h2.91c1.89,0,3.58-.37,5.06-1.11,1.48-.74,2.74-1.75,3.78-3.05,1.04-1.29,1.84-2.8,2.39-4.51.55-1.71.83-3.55.83-5.5s-.28-3.79-.83-5.5c-.55-1.71-1.35-3.22-2.39-4.51-1.04-1.29-2.3-2.31-3.78-3.05-1.48-.74-3.17-1.11-5.06-1.11h-2.91c-1.16,0-1.73.58-1.73,1.73v24.93Z"></path><path d="m190.23,47.08c.51-.12.92-.37,1.25-.75.32-.38.49-.89.49-1.52v-24.93c0-.6-.16-1.1-.49-1.49-.32-.4-.72-.66-1.18-.78h7.97c-.51.12-.91.38-1.21.78-.3.4-.45.9-.45,1.49v24.93c0,.64.16,1.15.49,1.52.32.38.74.63,1.25.75h-8.11Z"></path><path d="m211.17,47.08c1.15-.28,1.73-1.04,1.73-2.27v-10.04l-9.01-14.89c-.37-.56-.81-1.03-1.32-1.4-.51-.38-1.2-.67-2.08-.87h9.92c-.6.12-1.06.39-1.39.81-.32.42-.3.91.07,1.46l8.32,13.75,8.32-13.75c.42-.64.42-1.16,0-1.55-.42-.4-.99-.64-1.73-.72h6.31c-.88.2-1.59.43-2.15.69-.55.26-1.11.79-1.66,1.58l-8.94,14.77v10.16c0,.64.16,1.15.49,1.52s.74.63,1.25.75h-8.11Z"></path><path d="m228.64,43.61c-.28.56-.36,1.05-.24,1.46s.35.77.69,1.05c.35.28.76.5,1.25.66s.96.26,1.42.3h-9.29c1.02-.24,2.04-.65,3.08-1.23,1.04-.58,1.79-1.33,2.25-2.24l10.96-22.72-.49-1.02c-.32-.48-.72-.94-1.18-1.38-.46-.44-1.04-.74-1.73-.9h6.79l12.55,25.95c.28.56.67,1.23,1.18,2,.51.78,1.22,1.29,2.15,1.52h-9.64c.23-.08.47-.21.73-.39.25-.18.47-.42.66-.72.18-.3.28-.64.28-1.02s-.12-.83-.35-1.35l-1.04-2.09c-.79-1.35-1.77-2.58-2.95-3.68-1.18-1.1-2.43-2.04-3.74-2.84-1.32-.8-2.67-1.42-4.06-1.88-1.39-.46-2.7-.71-3.95-.75l-5.34,11.24Zm10.47-21.94l-4.85,10.16c1.06.04,2.16.23,3.29.57,1.13.34,2.28.8,3.43,1.38,1.16.58,2.28,1.27,3.36,2.06,1.08.8,2.07,1.69,2.95,2.69l-8.18-16.86Z"></path><path d="m260.81,47.08c.51-.12.92-.37,1.25-.75.32-.38.49-.89.49-1.52v-24.93c0-.6-.16-1.1-.49-1.49-.32-.4-.72-.66-1.18-.78h7.97c-.51.12-.91.38-1.21.78-.3.4-.45.9-.45,1.49v8.25c1.62.16,3.3.49,5.06.99,1.76.5,3.41,1.16,4.96,1.97,1.55.82,2.93,1.79,4.16,2.93,1.22,1.14,2.14,2.4,2.74,3.8v-17.94c0-.6-.15-1.1-.45-1.49-.3-.4-.71-.66-1.21-.78h7.97c-.51.12-.91.38-1.21.78-.3.4-.45.9-.45,1.49v24.93c0,.64.16,1.15.49,1.52.32.38.74.63,1.25.75h-8.11c1.16-.28,1.73-1.04,1.73-2.27v-4.13c-.05-1.67-.61-3.21-1.7-4.6-1.09-1.39-2.45-2.61-4.09-3.65-1.64-1.04-3.44-1.87-5.41-2.51-1.96-.64-3.87-1.04-5.72-1.2v16.08c0,.64.16,1.15.49,1.52.32.38.74.63,1.25.75h-8.11Z"></path></g><g><path d="m89,47.08c.51-.12.92-.37,1.25-.75.32-.38.49-.89.49-1.52v-24.93c0-.6-.16-1.1-.49-1.49-.32-.4-.72-.66-1.18-.78h7.97c-.51.12-.91.38-1.21.78-.3.4-.45.9-.45,1.49v8.25c1.62.16,3.3.49,5.06.99,1.76.5,3.41,1.16,4.96,1.97,1.55.82,2.93,1.79,4.16,2.93,1.22,1.14,2.14,2.4,2.74,3.8v-17.94c0-.6-.15-1.1-.45-1.49-.3-.4-.71-.66-1.21-.78h7.97c-.51.12-.91.38-1.21.78-.3.4-.45.9-.45,1.49v24.93c0,.64.16,1.15.49,1.52.32.38.74.63,1.25.75h-8.11c1.15-.28,1.73-1.04,1.73-2.27v-4.13c-.05-1.67-.61-3.21-1.7-4.6-1.09-1.39-2.45-2.61-4.09-3.65-1.64-1.04-3.44-1.87-5.41-2.51-1.96-.64-3.87-1.04-5.72-1.2v16.08c0,.64.16,1.15.49,1.52.32.38.74.63,1.25.75h-8.11Z" class="cls-4"></path><path d="m127.48,43.61c-.28.56-.36,1.05-.24,1.46.11.42.35.77.69,1.05.35.28.76.5,1.25.66.48.16.96.26,1.42.3h-9.29c1.02-.24,2.05-.65,3.09-1.23,1.04-.58,1.79-1.33,2.25-2.24l10.95-22.72-.49-1.02c-.32-.48-.72-.94-1.18-1.38-.46-.44-1.04-.74-1.73-.9h6.79l12.55,25.95c.28.56.67,1.23,1.18,2,.51.78,1.22,1.29,2.15,1.52h-9.64c.23-.08.47-.21.73-.39.25-.18.47-.42.66-.72.18-.3.28-.64.28-1.02s-.12-.83-.35-1.35l-1.04-2.09c-.79-1.35-1.77-2.58-2.95-3.68-1.18-1.1-2.43-2.04-3.74-2.84-1.32-.8-2.67-1.42-4.06-1.88-1.39-.46-2.7-.71-3.95-.75l-5.34,11.24Zm10.47-21.94l-4.85,10.16c1.06.04,2.16.23,3.29.57,1.13.34,2.28.8,3.43,1.38,1.15.58,2.28,1.27,3.36,2.06,1.09.8,2.07,1.69,2.95,2.69l-8.18-16.86Z" class="cls-4"></path><path d="m159.65,47.08c.51-.12.92-.37,1.25-.75.32-.38.49-.89.49-1.52v-24.93c0-.6-.16-1.1-.49-1.49-.32-.4-.72-.66-1.18-.78h11.16c2.36,0,4.55.39,6.59,1.17,2.03.78,3.81,1.83,5.34,3.17,1.53,1.34,2.73,2.89,3.61,4.66.88,1.77,1.32,3.68,1.32,5.71s-.44,3.94-1.32,5.71c-.88,1.77-2.08,3.33-3.61,4.66-1.53,1.34-3.3,2.39-5.34,3.17s-4.23,1.19-6.59,1.23h-11.23Zm6.38-2.27c0,.64.16,1.08.49,1.31.32.24.74.36,1.25.36h2.91c1.89,0,3.58-.37,5.06-1.11,1.48-.74,2.74-1.75,3.78-3.05,1.04-1.29,1.84-2.8,2.39-4.51.55-1.71.83-3.55.83-5.5s-.28-3.79-.83-5.5c-.55-1.71-1.35-3.22-2.39-4.51-1.04-1.29-2.3-2.31-3.78-3.05-1.48-.74-3.17-1.11-5.06-1.11h-2.91c-1.16,0-1.73.58-1.73,1.73v24.93Z" class="cls-4"></path><path d="m190.23,47.08c.51-.12.92-.37,1.25-.75.32-.38.49-.89.49-1.52v-24.93c0-.6-.16-1.1-.49-1.49-.32-.4-.72-.66-1.18-.78h7.97c-.51.12-.91.38-1.21.78-.3.4-.45.9-.45,1.49v24.93c0,.64.16,1.15.49,1.52.32.38.74.63,1.25.75h-8.11Z" class="cls-4"></path><path d="m211.17,47.08c1.15-.28,1.73-1.04,1.73-2.27v-10.04l-9.01-14.89c-.37-.56-.81-1.03-1.32-1.4-.51-.38-1.2-.67-2.08-.87h9.92c-.6.12-1.06.39-1.39.81-.32.42-.3.91.07,1.46l8.32,13.75,8.32-13.75c.42-.64.42-1.16,0-1.55-.42-.4-.99-.64-1.73-.72h6.31c-.88.2-1.59.43-2.15.69-.55.26-1.11.79-1.66,1.58l-8.94,14.77v10.16c0,.64.16,1.15.49,1.52s.74.63,1.25.75h-8.11Z" class="cls-4"></path><path d="m228.64,43.61c-.28.56-.36,1.05-.24,1.46s.35.77.69,1.05c.35.28.76.5,1.25.66s.96.26,1.42.3h-9.29c1.02-.24,2.04-.65,3.08-1.23,1.04-.58,1.79-1.33,2.25-2.24l10.96-22.72-.49-1.02c-.32-.48-.72-.94-1.18-1.38-.46-.44-1.04-.74-1.73-.9h6.79l12.55,25.95c.28.56.67,1.23,1.18,2,.51.78,1.22,1.29,2.15,1.52h-9.64c.23-.08.47-.21.73-.39.25-.18.47-.42.66-.72.18-.3.28-.64.28-1.02s-.12-.83-.35-1.35l-1.04-2.09c-.79-1.35-1.77-2.58-2.95-3.68-1.18-1.1-2.43-2.04-3.74-2.84-1.32-.8-2.67-1.42-4.06-1.88-1.39-.46-2.7-.71-3.95-.75l-5.34,11.24Zm10.47-21.94l-4.85,10.16c1.06.04,2.16.23,3.29.57,1.13.34,2.28.8,3.43,1.38,1.16.58,2.28,1.27,3.36,2.06,1.08.8,2.07,1.69,2.95,2.69l-8.18-16.86Z" class="cls-4"></path><path d="m260.81,47.08c.51-.12.92-.37,1.25-.75.32-.38.49-.89.49-1.52v-24.93c0-.6-.16-1.1-.49-1.49-.32-.4-.72-.66-1.18-.78h7.97c-.51.12-.91.38-1.21.78-.3.4-.45.9-.45,1.49v8.25c1.62.16,3.3.49,5.06.99,1.76.5,3.41,1.16,4.96,1.97,1.55.82,2.93,1.79,4.16,2.93,1.22,1.14,2.14,2.4,2.74,3.8v-17.94c0-.6-.15-1.1-.45-1.49-.3-.4-.71-.66-1.21-.78h7.97c-.51.12-.91.38-1.21.78-.3.4-.45.9-.45,1.49v24.93c0,.64.16,1.15.49,1.52.32.38.74.63,1.25.75h-8.11c1.16-.28,1.73-1.04,1.73-2.27v-4.13c-.05-1.67-.61-3.21-1.7-4.6-1.09-1.39-2.45-2.61-4.09-3.65-1.64-1.04-3.44-1.87-5.41-2.51-1.96-.64-3.87-1.04-5.72-1.2v16.08c0,.64.16,1.15.49,1.52.32.38.74.63,1.25.75h-8.11Z" class="cls-4"></path></g></g><g><path d="m34.4,42.42c-3.8,0-11.65-1.3-14.27-5.61-.19-.32-.29-.68-.29-1.06v-14.62c0-.2.06-.39.17-.55l.88-1.33h-8.24c-2.58,0-4.91,1.67-5.61,4.16,0,.02-.01.04-.01.06l-.35,13.69c-.69,3.06-2.46,5.97-6.67,6.67l16.95-.68c.4-.02.79.06,1.15.21l6.44,2.8c1.88.62,3.84,1.01,5.82,1.11,9.18.47,17.89-3.29,22.82-.82-2.98-7.55-13.98-4.03-18.78-4.04Zm-18.95-4.21h-4.56v-12.64c.7-2.11,2.11-2.11,4.56-2.11v14.74Z" class="cls-1"></path><path d="m72.66,23.85c-.35-.14-.69-.31-1-.54-2.85-2.12-4.31-4.23-3.75-6.34-2.59,1.3-3.18,3.21-2.11,5.62-1.28,2.24-2.19,5.42-2.96,8.92-.17.77-.26,1.56-.21,2.34.16,2.37,1.41,4.6,7.03,6.29-.01.02-.03.04-.05.05-2.23,2.52-5.88,3.21-8.93,1.8-4.06-1.87-5.86-5.12-4.02-10.57.65-1.92.91-3.97.59-5.97-.69-4.34-3.52-6.69-10.76-4.97-7.4,1.44-13.13.04-16.5-4.21,0,0-3.72,7.98,5.04,9.44,4.63.77,10.91-.06,14.18-.61,2.88-.48,5.67,1.48,6.02,4.38.07.56.08,1.18.02,1.88-10.53-2.81-22.81,5.97-31.59-2.81,5.97,15.79,12.99,5.62,29.83,8.07-.47,3.75.69,7.1,3.84,9.28,2.86,1.98,6.65,1.93,9.63.12,1.81-1.11,3.18-2.7,3.73-5.18,2.64,1.56,4.65,3.63,6.32,5.97,2.36-2.32,3.52-5.96,3.51-10.88,0-5.77-2.46-9.91-7.89-12.08Zm-7.03,8.04c-1.63-1.3-.97-5.12,1.78-5.29.41-.03.81.12,1.13.37,2.65,2.13,3.38,4.97,3.41,8.08-2.25-.81-4.56-1.75-6.32-3.16Zm7.72,4.21l.35-5.26c3.7,2.44,4.94,5.62,4.56,10.18-1.24-1.97-2.69-3.35-4.91-4.91Z" class="cls-3"></path></g><rect transform="translate(49.51 -11.05) rotate(45)" height="3.23" width="3.23" y="52.63" x="36.48" class="cls-5"></rect><rect transform="translate(50.87 -14.32) rotate(45)" height="3.23" width="3.23" y="52.63" x="41.11" class="cls-2"></rect></svg>