<?xml version="1.0" encoding="utf-8"?>
<!-- Generator: Adobe Illustrator 26.0.1, SVG Export Plug-In . SVG Version: 6.00 Build 0)  -->
<svg version="1.1" id="Layer_1" xmlns="http://www.w3.org/2000/svg" xmlns:xlink="http://www.w3.org/1999/xlink" x="0px" y="0px"
	 viewBox="0 0 500 500" style="enable-background:new 0 0 500 500;" xml:space="preserve">
<style type="text/css">
	.st0{fill:#010202;}
	.st1{fill:none;}
	.st2{fill:#FFFFFF;}
	.st3{fill:#49A3DB;}
	.st4{fill:none;stroke:#010202;stroke-width:1.0886;stroke-miterlimit:10;}
	.st5{fill:none;stroke:#010202;stroke-width:0.9009;stroke-miterlimit:10;}
	.st6{fill:none;stroke:#000000;}
	.st7{clip-path:url(#SVGID_00000169557464190377877970000009350957971671047297_);}
	.st8{fill:#020203;}
	.st9{clip-path:url(#SVGID_00000040541064520179495970000017986988923869413819_);}
	.st10{fill:#222222;}
	.st11{clip-path:url(#SVGID_00000052816443384446689150000010965705247593253261_);}
	.st12{clip-path:url(#SVGID_00000026131041379928459040000016605220563402707618_);}
	.st13{clip-path:url(#SVGID_00000128448353088652411790000008239335456733460409_);}
	.st14{clip-path:url(#SVGID_00000105404410696937346120000010833259960825516704_);}
	.st15{clip-path:url(#SVGID_00000167367037752135650310000003601270439428183725_);}
	.st16{clip-path:url(#SVGID_00000100351106053512305030000016150427680478439304_);}
	.st17{fill:#1C3F84;}
	.st18{fill:#8B9098;}
	.st19{fill:#223465;}
	.st20{fill:#C72828;}
	.st21{fill:#F5C840;}
	.st22{fill:url(#SVGID_00000169557638578642645690000001049576074987149247_);}
	.st23{fill:#0F1B2C;}
	.st24{fill:#8A8F98;}
	.st25{fill:#ED6B10;}
	.st26{fill:#F28A1F;}
	.st27{fill:#D8CDC5;}
	.st28{fill:#F2EBE7;}
	.st29{fill:#E2DDD7;}
	.st30{fill:#FFE8A3;}
	.st31{fill:#C58B29;}
</style>
<g>
	<g>
		<path class="st0" d="M130.9,483.2c-0.8,1.5-2.1,2.7-3.8,3.6c-1.7,0.9-3.8,1.4-6.3,1.4c-2.4,0-4.6-0.4-6.5-1.3
			c-1.9-0.9-3.4-2-4.6-3.6c-1.1-1.5-1.8-3.3-2-5.3h6.1c0.2,1.5,0.8,2.9,2,4c1.2,1.1,2.7,1.7,4.6,1.7c1.7,0,3.1-0.5,4-1.4
			c1-0.9,1.4-2.1,1.4-3.6c0-1.3-0.4-2.3-1.1-3.1c-0.7-0.8-1.6-1.5-2.6-1.9c-1-0.5-2.5-1-4.3-1.6c-2.2-0.7-4-1.4-5.4-2.1
			c-1.4-0.7-2.6-1.7-3.5-3.1c-1-1.3-1.5-3.1-1.5-5.3c0-1.9,0.5-3.6,1.4-5c0.9-1.4,2.3-2.5,4-3.3c1.7-0.8,3.7-1.2,6-1.2
			c3.6,0,6.5,0.9,8.6,2.6c2.1,1.7,3.3,4,3.6,6.8h-6.2c-0.2-1.3-0.9-2.5-1.9-3.4c-1-1-2.4-1.4-4.2-1.4c-1.6,0-2.9,0.4-3.9,1.2
			c-1,0.8-1.5,2-1.5,3.5c0,1.2,0.3,2.2,1,3c0.7,0.8,1.5,1.4,2.5,1.9c1,0.5,2.4,1,4.2,1.6c2.2,0.7,4.1,1.4,5.5,2.1
			c1.4,0.7,2.6,1.8,3.6,3.1c1,1.4,1.5,3.2,1.5,5.4C132.2,480.1,131.8,481.8,130.9,483.2z"/>
		<path class="st0" d="M165.8,454.3c2.7,1.5,4.7,3.7,6.3,6.4c1.5,2.8,2.3,5.9,2.3,9.3c0,3.5-0.8,6.6-2.3,9.3
			c-1.5,2.8-3.6,4.9-6.3,6.5c-2.7,1.6-5.6,2.3-8.9,2.3c-3.3,0-6.3-0.8-8.9-2.3c-2.7-1.6-4.8-3.7-6.3-6.5c-1.5-2.8-2.3-5.9-2.3-9.3
			c0-3.5,0.8-6.6,2.3-9.3c1.5-2.8,3.6-4.9,6.3-6.4c2.7-1.5,5.6-2.3,8.9-2.3C160.1,452,163.1,452.8,165.8,454.3z M150.8,458.9
			c-1.8,1-3.1,2.5-4.1,4.5c-1,1.9-1.5,4.2-1.5,6.8c0,2.6,0.5,4.8,1.5,6.8c1,1.9,2.4,3.4,4.1,4.5c1.8,1,3.8,1.6,6.1,1.6
			c2.2,0,4.2-0.5,6-1.6c1.8-1,3.1-2.5,4.1-4.5c1-1.9,1.5-4.2,1.5-6.8c0-2.6-0.5-4.8-1.5-6.8c-1-1.9-2.4-3.4-4.1-4.5s-3.7-1.6-6-1.6
			C154.6,457.3,152.6,457.8,150.8,458.9z"/>
		<path class="st0" d="M188.4,483.4h12.2v4.5h-17.9v-35.4h5.7V483.4z"/>
		<path class="st0" d="M213.1,452.5v21c0,3.1,0.7,5.5,2.1,7c1.4,1.5,3.3,2.3,5.8,2.3c2.5,0,4.4-0.8,5.8-2.3c1.4-1.5,2.1-3.9,2.1-7
			v-21h5.7v21c0,4.8-1.3,8.5-3.8,11c-2.5,2.5-5.8,3.7-9.9,3.7c-4.1,0-7.3-1.2-9.8-3.7c-2.5-2.5-3.7-6.2-3.7-11v-21H213.1z"/>
		<path class="st0" d="M266.6,452.5v4.6h-9.9v30.8H251v-30.8h-9.8v-4.6H266.6z"/>
		<path class="st0" d="M279.2,452.5v35.4h-5.7v-35.4H279.2z"/>
		<path class="st0" d="M314,454.3c2.7,1.5,4.7,3.7,6.3,6.4c1.5,2.8,2.3,5.9,2.3,9.3c0,3.5-0.8,6.6-2.3,9.3c-1.5,2.8-3.6,4.9-6.3,6.5
			c-2.7,1.6-5.6,2.3-8.9,2.3c-3.3,0-6.3-0.8-8.9-2.3c-2.7-1.6-4.8-3.7-6.3-6.5c-1.5-2.8-2.3-5.9-2.3-9.3c0-3.5,0.8-6.6,2.3-9.3
			c1.5-2.8,3.6-4.9,6.3-6.4c2.7-1.5,5.6-2.3,8.9-2.3C308.3,452,311.3,452.8,314,454.3z M299,458.9c-1.8,1-3.1,2.5-4.1,4.5
			c-1,1.9-1.5,4.2-1.5,6.8c0,2.6,0.5,4.8,1.5,6.8c1,1.9,2.4,3.4,4.1,4.5c1.8,1,3.8,1.6,6.1,1.6c2.2,0,4.2-0.5,6-1.6
			c1.8-1,3.1-2.5,4.1-4.5c1-1.9,1.5-4.2,1.5-6.8c0-2.6-0.5-4.8-1.5-6.8c-1-1.9-2.4-3.4-4.1-4.5c-1.8-1-3.7-1.6-6-1.6
			C302.8,457.3,300.8,457.8,299,458.9z"/>
		<path class="st0" d="M359.5,487.8h-5.7l-17.2-26.1v26.1h-5.7v-35.3h5.7l17.2,26.2v-26.2h5.7V487.8z"/>
		<path class="st0" d="M391,483.2c-0.8,1.5-2.1,2.7-3.8,3.6c-1.7,0.9-3.8,1.4-6.3,1.4c-2.4,0-4.6-0.4-6.5-1.3
			c-1.9-0.9-3.4-2-4.6-3.6c-1.1-1.5-1.8-3.3-2-5.3h6.1c0.2,1.5,0.8,2.9,2,4c1.2,1.1,2.7,1.7,4.6,1.7c1.7,0,3.1-0.5,4-1.4
			c1-0.9,1.4-2.1,1.4-3.6c0-1.3-0.4-2.3-1.1-3.1c-0.7-0.8-1.6-1.5-2.6-1.9c-1-0.5-2.5-1-4.3-1.6c-2.2-0.7-4-1.4-5.4-2.1
			c-1.4-0.7-2.6-1.7-3.5-3.1c-1-1.3-1.5-3.1-1.5-5.3c0-1.9,0.5-3.6,1.4-5c0.9-1.4,2.3-2.5,4-3.3c1.7-0.8,3.7-1.2,6-1.2
			c3.6,0,6.5,0.9,8.6,2.6c2.1,1.7,3.3,4,3.6,6.8h-6.2c-0.2-1.3-0.9-2.5-1.9-3.4c-1-1-2.4-1.4-4.2-1.4c-1.6,0-2.9,0.4-3.9,1.2
			c-1,0.8-1.5,2-1.5,3.5c0,1.2,0.3,2.2,1,3c0.7,0.8,1.5,1.4,2.5,1.9c1,0.5,2.4,1,4.2,1.6c2.2,0.7,4.1,1.4,5.5,2.1
			c1.4,0.7,2.6,1.8,3.6,3.1c1,1.4,1.5,3.2,1.5,5.4C392.2,480.1,391.8,481.8,391,483.2z"/>
	</g>
	<line class="st1" x1="277.3" y1="287.4" x2="277.3" y2="287.4"/>
	<g>
		<path class="st0" d="M111.1,325.8c6.6,3.7,11.7,8.9,15.5,15.6c3.8,6.7,5.7,14.2,5.7,22.6c0,8.4-1.9,15.9-5.7,22.6
			c-3.8,6.7-9,11.9-15.6,15.7c-6.6,3.7-13.8,5.6-21.8,5.6c-8,0-15.3-1.9-21.8-5.6c-6.6-3.7-11.8-9-15.6-15.7
			c-3.8-6.7-5.7-14.2-5.7-22.6c0-8.4,1.9-15.9,5.7-22.6c3.8-6.7,9-11.8,15.6-15.6c6.6-3.7,13.8-5.6,21.8-5.6
			C97.2,320.1,104.6,322,111.1,325.8z M73,346c-4,4.4-6,10.4-6,18c0,7.5,2,13.5,6,17.9c4,4.4,9.4,6.7,16.1,6.7
			c6.7,0,12-2.2,16.1-6.7c4-4.4,6-10.4,6-17.9s-2-13.5-6-17.9c-4-4.4-9.4-6.7-16.1-6.7C82.4,339.4,77,341.6,73,346z"/>
		<path class="st0" d="M205.2,346.5c4.6,5.2,6.8,12.3,6.8,21.3V407h-20.7v-36.8c0-4.5-1.2-8-3.6-10.6c-2.4-2.5-5.5-3.8-9.5-3.8
			c-4.2,0-7.5,1.3-10,4c-2.5,2.7-3.7,6.5-3.7,11.4V407H144v-67.5h20.7v12.3c1.9-4,4.8-7.2,8.6-9.6c3.8-2.3,8.3-3.5,13.5-3.5
			C194.5,338.8,200.6,341.3,205.2,346.5z"/>
		<path class="st0" d="M297.2,386.3c-3.6,6.5-8.7,11.5-15.5,15.2c-6.7,3.6-14.7,5.4-23.8,5.4h-32.3v-85.5H258
			c9.2,0,17.1,1.8,23.8,5.3c6.7,3.5,11.8,8.5,15.4,15c3.6,6.5,5.4,13.9,5.4,22.2C302.6,372.4,300.8,379.9,297.2,386.3z M275,382.1
			c4.5-4.3,6.7-10.3,6.7-18c0-7.7-2.2-13.7-6.7-18c-4.5-4.3-10.7-6.4-18.8-6.4h-9.8v48.9h9.8C264.2,388.5,270.5,386.3,275,382.1z"/>
		<path class="st0" d="M315.8,312.7c2.3-2.1,5.2-3.1,8.9-3.1s6.7,1,8.9,3.1c2.3,2.1,3.4,4.7,3.4,7.8c0,3.1-1.1,5.6-3.4,7.7
			c-2.3,2.1-5.2,3.1-8.9,3.1s-6.7-1-8.9-3.1c-2.3-2.1-3.4-4.6-3.4-7.7C312.4,317.4,313.5,314.8,315.8,312.7z M335,339.5V407h-20.7
			v-67.5H335z"/>
		<path class="st0" d="M388.2,342.1c3.7,2.3,6.4,5.5,8.2,9.6v-12.2H417v67.1c0,6.3-1.2,12-3.6,17c-2.4,5-6.1,9-11.1,12
			c-5,3-11.2,4.5-18.6,4.5c-10.2,0-18.3-2.4-24.4-7.2c-6.1-4.8-9.7-11.3-10.9-19.5h20.4c0.6,2.7,2.1,4.9,4.4,6.4
			c2.3,1.5,5.3,2.3,9,2.3c4.3,0,7.7-1.2,10.3-3.7c2.6-2.5,3.9-6.4,3.9-11.8v-11.8c-1.8,4-4.5,7.2-8.2,9.6c-3.7,2.3-8.1,3.5-13.3,3.5
			c-5.6,0-10.5-1.4-14.9-4.2c-4.4-2.8-7.9-6.8-10.4-12c-2.5-5.2-3.8-11.4-3.8-18.4c0-7.1,1.3-13.2,3.8-18.4c2.5-5.2,6-9.2,10.4-12
			c4.4-2.8,9.4-4.2,14.9-4.2C380.1,338.6,384.5,339.8,388.2,342.1z M370.9,361.1c-2.7,2.9-4.1,6.9-4.1,12.1c0,5.2,1.3,9.2,4.1,12.1
			c2.7,2.9,6.3,4.4,10.7,4.4c4.4,0,7.9-1.5,10.7-4.5c2.8-3,4.2-7,4.2-12c0-5.1-1.4-9.1-4.2-12c-2.8-2.9-6.3-4.4-10.7-4.4
			C377.1,356.8,373.6,358.2,370.9,361.1z"/>
		<path class="st0" d="M432.7,312.7c2.3-2.1,5.2-3.1,8.9-3.1s6.7,1,8.9,3.1c2.3,2.1,3.4,4.7,3.4,7.8c0,3.1-1.1,5.6-3.4,7.7
			c-2.3,2.1-5.2,3.1-8.9,3.1s-6.7-1-8.9-3.1c-2.3-2.1-3.4-4.6-3.4-7.7C429.3,317.4,430.4,314.8,432.7,312.7z M451.9,339.5V407h-20.7
			v-67.5H451.9z"/>
	</g>
	<g>
		<path class="st0" d="M232.3,165.1v58.6c-12.5-5.5-22.7-15.1-28.9-27v-31.6H232.3z"/>
		<path class="st0" d="M269.4,133.5v94.1c-4,0.8-8.2,1.3-12.4,1.3c-4.3,0-8.4-0.4-12.4-1.3v-94.1H269.4z"/>
		<path class="st0" d="M316.2,230.4l-23.4,26.8l-19.5,22.3c-4.4,0.4-8.8,0.6-13.3,0.6c-77.5,0-140.5-60.2-140.5-134.2
			c0-74,63-134.2,140.5-134.2c3.1,0,6.1,0.1,9.1,0.3v34.5c-3-0.2-6.1-0.4-9.1-0.4c-58.2,0-105.5,44.8-105.5,99.8
			c0,55,47.3,99.8,105.5,99.8C280.6,245.8,299.9,240.1,316.2,230.4z"/>
		<path class="st0" d="M400.5,146c0,69.7-56,127.2-127.2,133.6l19.5-22.3l23.4-26.8c29.6-17.7,49.4-48.9,49.4-84.5
			c0-36.1-20.4-67.9-50.9-85.4V22.3C365,42.7,400.5,90.5,400.5,146z"/>
		<path class="st0" d="M314.6,22.3v157.2c0,6.4-1.6,12.8-4.7,18.4c-6.2,11.2-16.1,20.3-28,25.6V13.4c0.2,0,0.4,0.1,0.6,0.1
			C293.7,15.2,304.5,18.2,314.6,22.3z"/>
	</g>
</g>
</svg>
